<mxfile host="app.diagrams.net" modified="2020-10-11T12:20:12.219Z" agent="5.0 (Macintosh; Intel Mac OS X 10_15_6) AppleWebKit/605.1.15 (KHTML, like Gecko) Version/14.0 Safari/605.1.15" etag="61U6N5CKwDYDvH9pdT9v" version="13.7.7" type="github">
  <diagram id="0FglJE-gf8vtT3oOQZ-4" name="Page-1">
    <mxGraphModel dx="652" dy="441" grid="1" gridSize="10" guides="1" tooltips="1" connect="1" arrows="1" fold="1" page="1" pageScale="1" pageWidth="850" pageHeight="1100" math="0" shadow="0">
      <root>
        <mxCell id="0" />
        <mxCell id="1" parent="0" />
        <mxCell id="JDqfd6o8wtK1HqEUDn-R-7" style="edgeStyle=orthogonalEdgeStyle;rounded=0;orthogonalLoop=1;jettySize=auto;html=1;exitX=0.5;exitY=1;exitDx=0;exitDy=0;" edge="1" parent="1">
          <mxGeometry relative="1" as="geometry">
            <mxPoint x="405" y="160" as="targetPoint" />
            <mxPoint x="405" y="140" as="sourcePoint" />
          </mxGeometry>
        </mxCell>
        <mxCell id="JDqfd6o8wtK1HqEUDn-R-11" value="" style="edgeStyle=orthogonalEdgeStyle;rounded=0;orthogonalLoop=1;jettySize=auto;html=1;" edge="1" parent="1" source="JDqfd6o8wtK1HqEUDn-R-1" target="JDqfd6o8wtK1HqEUDn-R-10">
          <mxGeometry relative="1" as="geometry" />
        </mxCell>
        <mxCell id="JDqfd6o8wtK1HqEUDn-R-1" value="May 2014" style="rounded=1;whiteSpace=wrap;html=1;fillColor=#d5e8d4;strokeColor=#82b366;" vertex="1" parent="1">
          <mxGeometry x="365" y="20" width="80" height="40" as="geometry" />
        </mxCell>
        <mxCell id="JDqfd6o8wtK1HqEUDn-R-2" value="JQuery" style="rounded=1;whiteSpace=wrap;html=1;fillColor=#dae8fc;strokeColor=#6c8ebf;" vertex="1" parent="1">
          <mxGeometry x="254" y="180" width="80" height="40" as="geometry" />
        </mxCell>
        <mxCell id="JDqfd6o8wtK1HqEUDn-R-3" value="" style="endArrow=none;html=1;" edge="1" parent="1">
          <mxGeometry width="50" height="50" relative="1" as="geometry">
            <mxPoint x="234" y="160" as="sourcePoint" />
            <mxPoint x="574" y="160" as="targetPoint" />
          </mxGeometry>
        </mxCell>
        <mxCell id="JDqfd6o8wtK1HqEUDn-R-4" value="CSS" style="rounded=1;whiteSpace=wrap;html=1;fillColor=#dae8fc;strokeColor=#6c8ebf;" vertex="1" parent="1">
          <mxGeometry x="364" y="180" width="80" height="40" as="geometry" />
        </mxCell>
        <mxCell id="JDqfd6o8wtK1HqEUDn-R-5" value="PHP" style="rounded=1;whiteSpace=wrap;html=1;fillColor=#dae8fc;strokeColor=#6c8ebf;" vertex="1" parent="1">
          <mxGeometry x="474" y="180" width="80" height="40" as="geometry" />
        </mxCell>
        <mxCell id="JDqfd6o8wtK1HqEUDn-R-8" value="" style="endArrow=none;html=1;" edge="1" parent="1">
          <mxGeometry width="50" height="50" relative="1" as="geometry">
            <mxPoint x="234" y="240" as="sourcePoint" />
            <mxPoint x="574" y="240" as="targetPoint" />
          </mxGeometry>
        </mxCell>
        <mxCell id="JDqfd6o8wtK1HqEUDn-R-9" style="edgeStyle=orthogonalEdgeStyle;rounded=0;orthogonalLoop=1;jettySize=auto;html=1;" edge="1" parent="1">
          <mxGeometry relative="1" as="geometry">
            <mxPoint x="406" y="270" as="targetPoint" />
            <mxPoint x="406" y="240" as="sourcePoint" />
          </mxGeometry>
        </mxCell>
        <mxCell id="JDqfd6o8wtK1HqEUDn-R-10" value="MTEX" style="rounded=1;whiteSpace=wrap;html=1;fillColor=#e1d5e7;strokeColor=#9673a6;" vertex="1" parent="1">
          <mxGeometry x="365" y="100" width="80" height="40" as="geometry" />
        </mxCell>
        <mxCell id="JDqfd6o8wtK1HqEUDn-R-14" value="" style="edgeStyle=orthogonalEdgeStyle;rounded=0;orthogonalLoop=1;jettySize=auto;html=1;" edge="1" parent="1" source="JDqfd6o8wtK1HqEUDn-R-12" target="JDqfd6o8wtK1HqEUDn-R-13">
          <mxGeometry relative="1" as="geometry" />
        </mxCell>
        <mxCell id="JDqfd6o8wtK1HqEUDn-R-12" value="Nov 2017" style="rounded=1;whiteSpace=wrap;html=1;fillColor=#d5e8d4;strokeColor=#82b366;" vertex="1" parent="1">
          <mxGeometry x="365" y="270" width="80" height="40" as="geometry" />
        </mxCell>
        <mxCell id="JDqfd6o8wtK1HqEUDn-R-13" value="Namecheap" style="rounded=1;whiteSpace=wrap;html=1;fillColor=#e1d5e7;strokeColor=#9673a6;" vertex="1" parent="1">
          <mxGeometry x="365" y="340" width="80" height="40" as="geometry" />
        </mxCell>
        <mxCell id="JDqfd6o8wtK1HqEUDn-R-15" style="edgeStyle=orthogonalEdgeStyle;rounded=0;orthogonalLoop=1;jettySize=auto;html=1;exitX=0.5;exitY=1;exitDx=0;exitDy=0;" edge="1" parent="1">
          <mxGeometry relative="1" as="geometry">
            <mxPoint x="405" y="400" as="targetPoint" />
            <mxPoint x="405" y="380" as="sourcePoint" />
          </mxGeometry>
        </mxCell>
        <mxCell id="JDqfd6o8wtK1HqEUDn-R-16" value="Javascript" style="rounded=1;whiteSpace=wrap;html=1;fillColor=#dae8fc;strokeColor=#6c8ebf;" vertex="1" parent="1">
          <mxGeometry x="254" y="420" width="80" height="40" as="geometry" />
        </mxCell>
        <mxCell id="JDqfd6o8wtK1HqEUDn-R-17" value="" style="endArrow=none;html=1;" edge="1" parent="1">
          <mxGeometry width="50" height="50" relative="1" as="geometry">
            <mxPoint x="234.0000000000001" y="400" as="sourcePoint" />
            <mxPoint x="574" y="400" as="targetPoint" />
          </mxGeometry>
        </mxCell>
        <mxCell id="JDqfd6o8wtK1HqEUDn-R-18" value="SCSS" style="rounded=1;whiteSpace=wrap;html=1;fillColor=#dae8fc;strokeColor=#6c8ebf;" vertex="1" parent="1">
          <mxGeometry x="364" y="420" width="80" height="40" as="geometry" />
        </mxCell>
        <mxCell id="JDqfd6o8wtK1HqEUDn-R-19" value="Angular 4" style="rounded=1;whiteSpace=wrap;html=1;fillColor=#dae8fc;strokeColor=#6c8ebf;" vertex="1" parent="1">
          <mxGeometry x="474" y="420" width="80" height="40" as="geometry" />
        </mxCell>
        <mxCell id="JDqfd6o8wtK1HqEUDn-R-20" value="" style="endArrow=none;html=1;" edge="1" parent="1">
          <mxGeometry width="50" height="50" relative="1" as="geometry">
            <mxPoint x="234.0000000000001" y="620" as="sourcePoint" />
            <mxPoint x="574" y="620" as="targetPoint" />
          </mxGeometry>
        </mxCell>
        <mxCell id="JDqfd6o8wtK1HqEUDn-R-21" style="edgeStyle=orthogonalEdgeStyle;rounded=0;orthogonalLoop=1;jettySize=auto;html=1;" edge="1" parent="1">
          <mxGeometry relative="1" as="geometry">
            <mxPoint x="406" y="650" as="targetPoint" />
            <mxPoint x="406" y="620" as="sourcePoint" />
          </mxGeometry>
        </mxCell>
        <mxCell id="JDqfd6o8wtK1HqEUDn-R-22" value="Ionic" style="rounded=1;whiteSpace=wrap;html=1;fillColor=#dae8fc;strokeColor=#6c8ebf;" vertex="1" parent="1">
          <mxGeometry x="254" y="480" width="80" height="40" as="geometry" />
        </mxCell>
        <mxCell id="JDqfd6o8wtK1HqEUDn-R-23" value="Github" style="rounded=1;whiteSpace=wrap;html=1;fillColor=#dae8fc;strokeColor=#6c8ebf;" vertex="1" parent="1">
          <mxGeometry x="364" y="480" width="80" height="40" as="geometry" />
        </mxCell>
        <mxCell id="JDqfd6o8wtK1HqEUDn-R-24" value="Bitbucket" style="rounded=1;whiteSpace=wrap;html=1;fillColor=#dae8fc;strokeColor=#6c8ebf;" vertex="1" parent="1">
          <mxGeometry x="474" y="480" width="80" height="40" as="geometry" />
        </mxCell>
        <mxCell id="JDqfd6o8wtK1HqEUDn-R-25" value="JIRA" style="rounded=1;whiteSpace=wrap;html=1;fillColor=#dae8fc;strokeColor=#6c8ebf;" vertex="1" parent="1">
          <mxGeometry x="254" y="540" width="80" height="40" as="geometry" />
        </mxCell>
        <mxCell id="JDqfd6o8wtK1HqEUDn-R-26" value="Scrum" style="rounded=1;whiteSpace=wrap;html=1;fillColor=#dae8fc;strokeColor=#6c8ebf;" vertex="1" parent="1">
          <mxGeometry x="364" y="540" width="80" height="40" as="geometry" />
        </mxCell>
        <mxCell id="JDqfd6o8wtK1HqEUDn-R-27" value="Bitbucket" style="rounded=1;whiteSpace=wrap;html=1;fillColor=#dae8fc;strokeColor=#6c8ebf;" vertex="1" parent="1">
          <mxGeometry x="474" y="540" width="80" height="40" as="geometry" />
        </mxCell>
      </root>
    </mxGraphModel>
  </diagram>
</mxfile>
